<?xml version="1.0" encoding="utf-8"?>
<!-- Generator: Adobe Illustrator 19.0.0, SVG Export Plug-In . SVG Version: 6.00 Build 0)  -->
<svg version="1.1" id="Capa_1" xmlns="http://www.w3.org/2000/svg" xmlns:xlink="http://www.w3.org/1999/xlink" x="0px" y="0px"
	 viewBox="0 0 612 792" style="enable-background:new 0 0 612 792;" xml:space="preserve">
<style type="text/css">
	.st0{fill:#1E1F21;}
	.st1{font-family:'ArialMT';}
	.st2{font-size:45.678px;}
</style>
<g>
	<path class="st0" d="M284.8,381.3c-15.1,9.6-14.8,29.2-7.7,37.8c10.2,12.3,23.9,15.2,39,12.1c17-3.6,30.8-16.1,24.5-38.9
		c-0.9-3.2-7.1-13.9-12.4-11.4c-3.5,1.4-22.5,12.4-29.6,16.4c-2.1,1.2-3,2.4-2.8,4.9c0.1,2.4,1.3,3.8,3.4,4.7
		c4.8,2.1,9.7,2.2,14.6,0.3c2.7-1.1,4.2-2.6,4-5.7c-0.2-3.5,0-7.1,0-11.4c5.9,3,8.3,7,8.3,12.1c-0.1,5.1-2.5,9-7.4,11.4
		c-6.2,3-12.6,3.6-19.3,1.8c-13.8-3.8-17.4-16.9-3.9-25.1c8.4-5,38.3-22.9,40.5-25.3c2.4-2.5,4.4-5.2,5.8-8.3
		c5.2-11.2,1.6-26-7.9-34c-1.7-1.5-3.1-2.1-5.5-0.7c-10.4,6.1-21,12-31.6,17.8c-2,1.1-2.6,2.4-2.5,4.6c0.2,4.4,0.1,8.7,0.1,13.5
		c-5.6-2.3-7.8-6.4-8.3-11.6c-0.5-5.5,1.7-10,6.6-12.9c12-6.9,23.9-14,36.1-20.6c20.4-11,23-38.8,4.8-53.1c-1.8-1.4-3.1-1.4-5.1-0.3
		c-10.6,6.2-21.2,12.3-31.9,18.1c-2.9,1.6-4.1,3.3-3.8,6.7c0.4,4.6,0.8,9.3,0.1,14.1c-11.3-6.5-11.3-21.1-0.2-27.5
		c12.5-7.3,25.3-14.1,37.8-21.5c21-12.4,23-39.6,4.3-55c-2.3-1.9-4-2.3-6.8-0.6c-11.3,6.6-22.7,12.9-34.1,19.2
		c-2.2,1.2-2.8,2.6-2.7,4.9c0.2,5.6,0.1,11.3,0.1,17.1c-11.8-7.9-11.3-22.9,0.9-29.9c24.9-14.2,50-28.1,74.7-42.6
		c22.8-13.4,26.1-44.2,7-62.3c-2-1.9-3.4-3.9-4.2-6.7c-3.2-11.9-10.4-16.8-22.7-14.5c-4.2,0.8-14.8,4.4-13.4,11.1
		c0.9,4.1,2.3,7.6,4.3,11.1c4.5,7.7,9.5,10.3,18.5,9c3.4-0.5,5.6,0.6,7.6,2.9c10.4,11.8,7.4,28.5-6.9,36.7
		c-24,13.8-48.2,27.4-72.4,40.9c-21.7,12.1-24.6,41.9-5.3,56.1c2.2,1.6,3.8,2.1,6.4,0.5c11.1-6.5,22.3-12.9,33.6-19.1
		c2.3-1.3,3.1-2.7,3.1-5.2c0.1-5.4-0.2-10.9,0.8-16.6c10.8,8.3,10.3,22.3-0.9,28.9c-12.1,7.1-24.2,14.2-36.5,20.8
		c-20.8,11-24.2,37.6-6.6,52.9c2,1.8,3.6,2.3,6.3,0.7c10.5-6.2,21.2-12.3,31.9-18.2c2.5-1.4,3.3-3,3.3-5.7c0-4.8,0.4-9.6,0.6-14.8
		c9.4,6.8,10.5,18.2,2.8,25.1c-2,1.8-4.5,3.1-6.9,4.4c-11.1,6.3-22.3,12.3-33.2,18.9c-17.2,10.5-18.3,31.3-5.6,46.8
		c2.6,4,8.9,0.7,8.9,0.7c4-2.3,24-13.6,30.1-16.9c1.8-1,1.8-2.4,1.7-4c0-4.3,0-8.7,0-13.5c10.9,5.7,11,18.3,1.2,24.7"/>
	<path class="st0" d="M592.8,96.2c-4.1,0-207.5-0.1-210.6,0.9c0.9,1.3,1.8,2.7,2.8,3.9c15.9,21,10.3,52.8-12.2,66.8
		c-10.1,6.3-32.9,19.9-32.9,19.9c3.4,4.7,8.9,10,11.9,16.4c1.1,2.3,1.7,2.8,4.1,1.4c9.6-5.6,19.4-10.9,28.9-16.6
		c2.5-1.5,4.8-2.2,7.7-2.2c18,0.1,36,0.1,54,0c7.5,0,12.6-3.5,14.8-9.5c1.2-3.4,1.1-5.2-3.5-5.1c-12.5,0.3-25,0.1-37.4,0.1
		c-5.3,0-10.5,0-16.1,0c2.2-5.9,5.5-8.1,11.7-8c26.7,0.4,53.5,0.1,80.2,0.2c7.6,0,13.2-2.9,16.5-9.6c2.6-5.4,1.8-6.5-4.4-6.5
		c-29,0-58,0-87.1,0c-5.8,0-6-0.4-4.3-5.8c0.8-2.5,3.4-2,5.2-2c39.4-0.1,78.8,0,118.2,0c8.9,0,15.5-4.3,18.1-11.8
		c1.7-5,1.3-5.7-4.2-5.7c-41,0-82,0-123,0c-3.4,0-6.8,0-10.2,0c-3.8,0.1-3.2-3.2-3.3-5.5c-0.1-2.2,1.7-2.3,3.3-2.4
		c7.3-0.2,151.1-0.3,154.3-0.4c11.2-0.4,19.1-3.9,21.9-12.6C598.9,97.1,598.2,96.2,592.8,96.2z"/>
	<path class="st0" d="M274.7,188.1c-3.5-2.3-24.4-14.3-34.1-20.4c-9.9-6.3-16.1-15.4-19.1-26.7c-7.8-29.9,12-43.8,11.5-44.7
		c-0.5-0.9-206.1,0.2-207.4,0.3c-11.1-0.2-9.8,1.7-8.5,6.7c2.8,8.7,7.3,11.7,17.7,11.7c0.1-0.3,0.1-0.3,0,0c0.4,0,152.9,0.1,157.7,0
		c3.1,0,4.2,1.2,3.8,4.6c-0.4,3.7-2.4,3.7-5.2,3.7c-43.4-0.1-86.9,0-130.3,0c-1.1,0-2.3,0.1-3.4,0c-2.6-0.2-2.9,0.9-2.5,3.2
		c1.4,7.7,8.4,13.9,16.6,14.2c4.9,0.2,9.7,0,14.6,0c35.2,0,70.3,0,105.5,0c4.8,0,5.1-0.4,6.1,6c0.4,2.5-3.9,1.6-5.8,1.6
		c-22.7,0.2-45.4,0.1-68.1,0.1c-6.8,0-13.6,0.1-20.4,0c-3.3-0.1-3.8,1.3-3,4.1c1.9,7.2,8.2,12,16.7,12c27.1,0.1,54.1,0.3,81.2-0.2
		c6.4-0.1,9.2,2.6,11.6,7.8c-1.3,0.1-2.2,0.2-3.1,0.2c-16.9,0-33.7,0.1-50.6,0c-4,0-4.8,1.2-3.6,4.7c2.1,6.3,7.5,9.9,15.5,9.9
		c17.8,0,35.7,0,53.5,0c2.7,0,4.9,0.6,7.3,2c9.7,5.7,19.6,11.2,29.4,16.8c1.3,0.7,2.6,2,3.7-0.6
		C264.5,198.2,268.9,192.6,274.7,188.1z"/>
	<path class="st0" d="M256.2,109.9c11.5,1.5,16.9-1.8,21.3-12.6c5.3-12.9,3.3-16.4-10.7-18.4c-12.6-1.9-19.8,2.7-23,14.8
		c-0.6,2.3-1.5,4-3.3,5.6c-20.4,19-16.6,50.1,7.8,64c10.5,6,21.1,11.8,31.5,17.9c2.2,1.3,3.7,0.9,5.7-0.2
		c11.6-6.7,23.2-13.3,34.9-19.7c2.7-1.5,3.7-3.1,3.8-6.3c0.4-24.8,1.2-49.6,1.5-74.5c0.1-4.9,1.5-6.7,6.5-7.3
		c13-1.7,25.6-5.2,38.8-10.9c-9.9-4.9-18.5-9.1-27.1-13.4c-1.8-0.9-3-0.1-4.3,1c-19.4,17.3-47.4,16.3-65.4,0.2
		c-1.8-1.6-3.3-1.9-5.6-0.8c-6.6,3.4-19.3,9.5-25,13.3c9,3.1,26.6,9.2,38.4,10.7c4,0.5,5.7,1.6,5.7,6c0.2,17.8,0.9,35.6,1.3,53.4
		c0.2,11.4,0,22.8,0,34.4c-0.5-0.1-1.2-0.1-1.7-0.4c-10.9-6.2-22.2-11.9-32.7-18.7c-12.7-8.2-14.7-24.6-5-35.3
		C251.3,111.2,253,109.5,256.2,109.9z"/>
	<path class="st0" d="M316.6,441.7c0.3-2.5-1.2-2.5-3-2.2c-4.5,0.8-9,0.9-13.5,0c-3-0.6-3.6,0.6-3.3,3.2c0.4,3.9-0.7,7.6-3,10.8
		c-2.4,3.3-2.8,7-2.3,10.9c3.9,33.7,7.8,67.3,11.7,101c0.6,5.1,1.2,10.1,1.8,15.2c0.2,1.2,0,2.9,1.8,2.8c1.7-0.1,1.5-1.8,1.7-3
		c0.1-0.5,5.2-45,7.7-66.8c2-17.2,4-34.4,5.9-51.3c0.2-2.8-0.2-5.2-1.6-7.2C317.8,451,316.1,446.7,316.6,441.7z"/>
	<path class="st0" d="M306.6,56.4c12.7,0.1,22.8-9.8,22.8-22.4c0-12.4-9.8-22-22.5-22c-12.8,0-22.6,9.4-22.7,21.8
		C284,46.5,293.8,56.4,306.6,56.4z"/>
</g>
<g>
	<defs>
		<rect id="SVGID_1_" x="798" y="81.5" width="612" height="629"/>
	</defs>
	<clipPath id="SVGID_2_">
		<use xlink:href="#SVGID_1_"  style="overflow:visible;"/>
	</clipPath>
</g>
<text transform="matrix(1.0183 0 0 1 140.8101 643.8956)" class="st1 st2">Medical Solutions</text>
</svg>
